<svg width="24" height="24" viewBox="0 0 24 24" fill="none" xmlns="http://www.w3.org/2000/svg">
<path d="M18.2888 17.3412L13.2612 12.3137L18.2888 7.28618C18.3736 7.20133 18.3736 7.05991 18.2888 6.97505L17.6594 6.34573C17.5746 6.26088 17.4332 6.26087 17.3483 6.34573L12.3208 11.3733L7.28619 6.33866C7.20134 6.2538 7.05992 6.2538 6.96799 6.34573L6.33867 6.97505C6.25382 7.0599 6.25381 7.20133 6.33867 7.28618L11.3662 12.3137L6.33867 17.3412C6.25382 17.4261 6.25382 17.5675 6.33867 17.6524L6.96799 18.2817C7.05285 18.3665 7.19427 18.3665 7.27912 18.2817L12.3067 13.2542L17.3342 18.2817C17.419 18.3665 17.5605 18.3665 17.6453 18.2817L18.2746 17.6524C18.3736 17.5675 18.3736 17.4261 18.2888 17.3412Z" fill="#202020"/>
</svg>
