<svg width="24" height="24" viewBox="0 0 24 24" fill="none" xmlns="http://www.w3.org/2000/svg">
<path d="M19.89 19.05L15.86 15.02C15.79 14.95 15.69 14.91 15.59 14.91H15.27C16.34 13.75 17 12.2 17 10.5C17 6.91 14.09 4 10.5 4C6.91 4 4 6.91 4 10.5C4 14.09 6.91 17 10.5 17C12.2 17 13.75 16.34 14.91 15.28V15.6C14.91 15.7 14.95 15.79 15.02 15.87L19.05 19.9C19.2 20.05 19.43 20.05 19.58 19.9L19.89 19.59C20.04 19.43 20.04 19.2 19.89 19.05ZM10.5 16C7.46 16 5 13.54 5 10.5C5 7.46 7.46 5 10.5 5C13.54 5 16 7.46 16 10.5C16 13.54 13.54 16 10.5 16Z" fill="#202020"/>
</svg>
